# xmcd
#
# Track frame offsets: 
#        150
#        11255
#        21787
#        33955
#        46830
#        57452
#        70395
#
# Disc length: 1084 seconds
#
# Revision: 0
# Processed by: cddbd v1.5.2PL0 Copyright (c) Steve Scherf et al.
# Submitted via: ExactAudioCopyFreeDBPlugin 1.0
#
DISCID=51043a07
DTITLE=Various Artist - The OKeh Rhythm and Blues Story Sampler: 1949-1
DTITLE=957
DYEAR=1900
DGENRE=R&B
TTITLE0=Mr. Google Eyes with Billy Ford and His Musical - No Wine, No Wo
TTITLE0=man V-8's
TTITLE1=Chuck Willis - Let's Jump Tonight
TTITLE2=Big Maybelle - Gabbin' Blues
TTITLE3=Cliff "King" Solomon - But Officer!
TTITLE4=Big John and The Buzzards - Your Cash Ain't Nothin' But Trash
TTITLE5=Larry Darnell - Boogie Oogie
TTITLE6=Screamin' Jay Hawkins - I Put A Spell On You
EXTD=
EXTT0=
EXTT1=
EXTT2=
EXTT3=
EXTT4=
EXTT5=
EXTT6=
PLAYORDER=
